<svg width="3987" height="1251" xmlns="http://www.w3.org/2000/svg" xmlns:xlink="http://www.w3.org/1999/xlink" xml:space="preserve" overflow="hidden"><g transform="translate(-294 -514)"><path d="M296.5 871.167C296.5 866.38 300.38 862.5 305.167 862.5L468.833 862.5C473.62 862.5 477.5 866.38 477.5 871.167L477.5 905.833C477.5 910.62 473.62 914.5 468.833 914.5L305.167 914.5C300.38 914.5 296.5 910.62 296.5 905.833Z" stroke="#E97132" stroke-width="4.58333" stroke-miterlimit="8" fill="#FFFFFF" fill-rule="evenodd"/><text font-family="Times New Roman,Times New Roman_MSFontService,sans-serif" font-weight="700" font-size="28" transform="matrix(1 0 0 1 336.973 898)">R1.fastq</text><path d="M296.5 957.167C296.5 952.38 300.38 948.5 305.167 948.5L468.833 948.5C473.62 948.5 477.5 952.38 477.5 957.167L477.5 991.833C477.5 996.62 473.62 1000.5 468.833 1000.5L305.167 1000.5C300.38 1000.5 296.5 996.62 296.5 991.833Z" stroke="#E97132" stroke-width="4.58333" stroke-miterlimit="8" fill="#FFFFFF" fill-rule="evenodd"/><text font-family="Times New Roman,Times New Roman_MSFontService,sans-serif" font-weight="700" font-size="28" transform="matrix(1 0 0 1 336.973 985)">R2.fastq</text><path d="M490.5 888C490.5 884.41 493.186 881.5 496.5 881.5 499.814 881.5 502.5 884.41 502.5 888 502.5 891.59 499.814 894.5 496.5 894.5 493.186 894.5 490.5 891.59 490.5 888Z" stroke="#46B1E1" stroke-width="6.875" stroke-miterlimit="8" fill="#46B1E1" fill-rule="evenodd"/><path d="M490.5 975C490.5 971.41 493.186 968.5 496.5 968.5 499.814 968.5 502.5 971.41 502.5 975 502.5 978.59 499.814 981.5 496.5 981.5 493.186 981.5 490.5 978.59 490.5 975Z" stroke="#46B1E1" stroke-width="6.875" stroke-miterlimit="8" fill="#46B1E1" fill-rule="evenodd"/><path d="M502.5 888.5 567.461 888.5" stroke="#46B1E1" stroke-width="4.58333" stroke-miterlimit="8" fill="none" fill-rule="evenodd"/><path d="M502.5 974.5 567.461 974.5" stroke="#46B1E1" stroke-width="4.58333" stroke-miterlimit="8" fill="none" fill-rule="evenodd"/><path d="M568 888.5C590.368 888.5 608.5 906.633 608.5 929" stroke="#46B1E1" stroke-width="4.58333" stroke-miterlimit="8" fill="none" fill-rule="evenodd"/><path d="M608.5 933.5C608.5 956.144 590.367 974.5 568 974.5" stroke="#46B1E1" stroke-width="4.58333" stroke-miterlimit="8" fill="none" fill-rule="evenodd"/><path d="M608.5 929.5 608.5 934.312" stroke="#46B1E1" stroke-width="4.58333" stroke-miterlimit="8" fill="none" fill-rule="evenodd"/><path d="M608.5 929.5 647.476 929.5" stroke="#46B1E1" stroke-width="4.58333" stroke-miterlimit="8" fill="none" fill-rule="evenodd"/><path d="M650.5 929C650.5 925.41 653.41 922.5 657 922.5 660.59 922.5 663.5 925.41 663.5 929 663.5 932.59 660.59 935.5 657 935.5 653.41 935.5 650.5 932.59 650.5 929Z" stroke="#46B1E1" stroke-width="6.875" stroke-miterlimit="8" fill="#46B1E1" fill-rule="evenodd"/><path d="M663.5 929.5 702.476 929.5" stroke="#46B1E1" stroke-width="4.58333" stroke-miterlimit="8" fill="none" fill-rule="evenodd"/><path d="M657.5 935.5 657.5 1000.46" stroke="#46B1E1" stroke-width="4.58333" stroke-miterlimit="8" fill="none" fill-rule="evenodd"/><path d="M650.5 1007C650.5 1003.41 653.41 1000.5 657 1000.5 660.59 1000.5 663.5 1003.41 663.5 1007 663.5 1010.59 660.59 1013.5 657 1013.5 653.41 1013.5 650.5 1010.59 650.5 1007Z" stroke="#46B1E1" stroke-width="6.875" stroke-miterlimit="8" fill="#46B1E1" fill-rule="evenodd"/><path d="M566.5 1036.67C566.5 1029.95 571.947 1024.5 578.667 1024.5L736.333 1024.5C743.052 1024.5 748.5 1029.95 748.5 1036.67L748.5 1085.33C748.5 1092.05 743.052 1097.5 736.333 1097.5L578.667 1097.5C571.947 1097.5 566.5 1092.05 566.5 1085.33Z" stroke="#8ED973" stroke-width="4.58333" stroke-miterlimit="8" fill="#FFFFFF" fill-rule="evenodd"/><text font-family="Times New Roman,Times New Roman_MSFontService,sans-serif" font-weight="700" font-size="28" transform="matrix(1 0 0 1 611.011 1054)">FastQC</text><text font-family="Times New Roman,Times New Roman_MSFontService,sans-serif" font-weight="700" font-size="28" transform="matrix(1 0 0 1 603.288 1087)">(V0.12.1)</text><path d="M650.5 1114C650.5 1110.41 653.41 1107.5 657 1107.5 660.59 1107.5 663.5 1110.41 663.5 1114 663.5 1117.59 660.59 1120.5 657 1120.5 653.41 1120.5 650.5 1117.59 650.5 1114Z" stroke="#46B1E1" stroke-width="6.875" stroke-miterlimit="8" fill="#46B1E1" fill-rule="evenodd"/><path d="M657.5 1120.5 657.5 1185.46" stroke="#46B1E1" stroke-width="4.58333" stroke-miterlimit="8" fill="none" fill-rule="evenodd"/><path d="M650.5 1192C650.5 1188.41 653.41 1185.5 657 1185.5 660.59 1185.5 663.5 1188.41 663.5 1192 663.5 1195.59 660.59 1198.5 657 1198.5 653.41 1198.5 650.5 1195.59 650.5 1192Z" stroke="#46B1E1" stroke-width="6.875" stroke-miterlimit="8" fill="#46B1E1" fill-rule="evenodd"/><path d="M566.5 1221.67C566.5 1214.95 571.947 1209.5 578.667 1209.5L736.333 1209.5C743.052 1209.5 748.5 1214.95 748.5 1221.67L748.5 1270.33C748.5 1277.05 743.052 1282.5 736.333 1282.5L578.667 1282.5C571.947 1282.5 566.5 1277.05 566.5 1270.33Z" stroke="#8ED973" stroke-width="4.58333" stroke-miterlimit="8" fill="#FFFFFF" fill-rule="evenodd"/><text font-family="Times New Roman,Times New Roman_MSFontService,sans-serif" font-weight="700" font-size="28" transform="matrix(1 0 0 1 603.574 1240)">MultiQC</text><text font-family="Times New Roman,Times New Roman_MSFontService,sans-serif" font-weight="700" font-size="28" transform="matrix(1 0 0 1 613.612 1273)">(V1.33)</text><path d="M650.5 1300C650.5 1296.41 653.41 1293.5 657 1293.5 660.59 1293.5 663.5 1296.41 663.5 1300 663.5 1303.59 660.59 1306.5 657 1306.5 653.41 1306.5 650.5 1303.59 650.5 1300Z" stroke="#46B1E1" stroke-width="6.875" stroke-miterlimit="8" fill="#46B1E1" fill-rule="evenodd"/><path d="M657.5 1306.5 657.5 1371.46" stroke="#46B1E1" stroke-width="4.58333" stroke-miterlimit="8" fill="none" fill-rule="evenodd"/><path d="M650.5 1378C650.5 1374.41 653.41 1371.5 657 1371.5 660.59 1371.5 663.5 1374.41 663.5 1378 663.5 1381.59 660.59 1384.5 657 1384.5 653.41 1384.5 650.5 1381.59 650.5 1378Z" stroke="#46B1E1" stroke-width="6.875" stroke-miterlimit="8" fill="#46B1E1" fill-rule="evenodd"/><path d="M566.5 1406.17C566.5 1401.38 570.38 1397.5 575.167 1397.5L739.833 1397.5C744.62 1397.5 748.5 1401.38 748.5 1406.17L748.5 1440.83C748.5 1445.62 744.62 1449.5 739.833 1449.5L575.167 1449.5C570.38 1449.5 566.5 1445.62 566.5 1440.83Z" stroke="#E97132" stroke-width="4.58333" stroke-miterlimit="8" fill="#FFFFFF" fill-rule="evenodd"/><text font-family="Times New Roman,Times New Roman_MSFontService,sans-serif" font-weight="700" font-size="28" transform="matrix(1 0 0 1 625.918 1433)">.html</text><path d="M705.5 929C705.5 925.41 708.41 922.5 712 922.5 715.59 922.5 718.5 925.41 718.5 929 718.5 932.59 715.59 935.5 712 935.5 708.41 935.5 705.5 932.59 705.5 929Z" stroke="#46B1E1" stroke-width="6.875" stroke-miterlimit="8" fill="#46B1E1" fill-rule="evenodd"/><path d="M730.5 904.834C730.5 898.022 736.022 892.5 742.834 892.5L899.166 892.5C905.978 892.5 911.5 898.022 911.5 904.834L911.5 954.166C911.5 960.978 905.978 966.5 899.166 966.5L742.834 966.5C736.022 966.5 730.5 960.978 730.5 954.166Z" stroke="#8ED973" stroke-width="4.58333" stroke-miterlimit="8" fill="#FFFFFF" fill-rule="evenodd"/><text font-family="Times New Roman,Times New Roman_MSFontService,sans-serif" font-weight="700" font-size="28" transform="matrix(1 0 0 1 787.602 923)">Fastp</text><text font-family="Times New Roman,Times New Roman_MSFontService,sans-serif" font-weight="700" font-size="28" transform="matrix(1 0 0 1 773.852 956)">(V1.0.1)</text><path d="M923.5 929C923.5 925.41 926.41 922.5 930 922.5 933.59 922.5 936.5 925.41 936.5 929 936.5 932.59 933.59 935.5 930 935.5 926.41 935.5 923.5 932.59 923.5 929Z" stroke="#46B1E1" stroke-width="6.875" stroke-miterlimit="8" fill="#46B1E1" fill-rule="evenodd"/><path d="M936.5 929.5 1001.46 929.5" stroke="#46B1E1" stroke-width="4.58333" stroke-miterlimit="8" fill="none" fill-rule="evenodd"/><path d="M0 12.0002C0 5.37267 5.37266-4.34458e-15 12.0002-5.79277e-15L170 0C176.627-1.44819e-15 182 5.37267 182 12.0002L182 60C182 66.6275 176.627 72.0002 170 72.0002L12.0002 72.0002C5.37266 72.0002-1.44819e-15 66.6275 0 60Z" stroke="#E97132" stroke-width="4.58333" stroke-miterlimit="8" fill="#FFFFFF" fill-rule="evenodd" transform="matrix(-1 0 0 1 1313.5 850.5)"/><text font-family="Times New Roman,Times New Roman_MSFontService,sans-serif" font-weight="700" font-size="28" transform="matrix(1 0 0 1 1168.85 880)">R1Filter.</text><text font-family="Times New Roman,Times New Roman_MSFontService,sans-serif" font-weight="700" font-size="28" transform="matrix(1 0 0 1 1192.34 913)">fastq</text><path d="M0 6.50003C-8.27541e-16 2.91016 2.91016 -8.27541e-16 6.50003-1.65508e-15 10.0899-3.31016e-15 13.0001 2.91016 13.0001 6.50003 13.0001 10.0899 10.0899 13.0001 6.50003 13.0001 2.91016 13.0001-4.1377e-15 10.0899 0 6.50003Z" stroke="#46B1E1" stroke-width="6.875" stroke-miterlimit="8" fill="#46B1E1" fill-rule="evenodd" transform="matrix(-1 0 0 1 1120.5 881.5)"/><path d="M0 6.50003C-8.27541e-16 2.91016 2.91016 -8.27541e-16 6.50003-1.65508e-15 10.0899-3.31016e-15 13.0001 2.91016 13.0001 6.50003 13.0001 10.0899 10.0899 13.0001 6.50003 13.0001 2.91016 13.0001-4.1377e-15 10.0899 0 6.50003Z" stroke="#46B1E1" stroke-width="6.875" stroke-miterlimit="8" fill="#46B1E1" fill-rule="evenodd" transform="matrix(-1 0 0 1 1120.5 968.5)"/><path d="M0 0 64.9606 0.000360892" stroke="#46B1E1" stroke-width="4.58333" stroke-miterlimit="8" fill="none" fill-rule="evenodd" transform="matrix(-1 0 0 1 1107.46 887.5)"/><path d="M0 0 64.9606 0.000360892" stroke="#46B1E1" stroke-width="4.58333" stroke-miterlimit="8" fill="none" fill-rule="evenodd" transform="matrix(-1 0 0 1 1107.46 974.5)"/><path d="M41.0001 0C63.6438-1.04397e-14 82.0002 18.3564 82.0002 41.0001" stroke="#46B1E1" stroke-width="4.58333" stroke-miterlimit="8" fill="none" fill-rule="evenodd" transform="matrix(-1 0 0 1 1083.5 887.5)"/><path d="M41.0001 0C63.6438-1.04397e-14 82.0002 18.3564 82.0002 41.0001" stroke="#46B1E1" stroke-width="4.58333" stroke-miterlimit="8" fill="none" fill-rule="evenodd" transform="matrix(1.83697e-16 1 1 -1.83697e-16 1001.5 892.5)"/><path d="M0 0 0.000360892 4.8125" stroke="#46B1E1" stroke-width="4.58333" stroke-miterlimit="8" fill="none" fill-rule="evenodd" transform="matrix(-1 0 0 1 1001.5 928.5)"/><path d="M1325.5 888C1325.5 884.41 1328.41 881.5 1332 881.5 1335.59 881.5 1338.5 884.41 1338.5 888 1338.5 891.59 1335.59 894.5 1332 894.5 1328.41 894.5 1325.5 891.59 1325.5 888Z" stroke="#D86ECC" stroke-width="6.875" stroke-miterlimit="8" fill="#D86ECC" fill-rule="evenodd"/><path d="M1325.5 975C1325.5 971.41 1328.41 968.5 1332 968.5 1335.59 968.5 1338.5 971.41 1338.5 975 1338.5 978.59 1335.59 981.5 1332 981.5 1328.41 981.5 1325.5 978.59 1325.5 975Z" stroke="#D86ECC" stroke-width="6.875" stroke-miterlimit="8" fill="#D86ECC" fill-rule="evenodd"/><path d="M1338.5 887.5 1403.46 887.5" stroke="#D86ECC" stroke-width="4.58333" stroke-miterlimit="8" fill="none" fill-rule="evenodd"/><path d="M1338.5 974.5 1403.46 974.5" stroke="#D86ECC" stroke-width="4.58333" stroke-miterlimit="8" fill="none" fill-rule="evenodd"/><path d="M1404 887.5C1426.37 887.5 1444.5 905.856 1444.5 928.5" stroke="#D86ECC" stroke-width="4.58333" stroke-miterlimit="8" fill="none" fill-rule="evenodd"/><path d="M1444.5 933.5C1444.5 956.144 1426.37 974.5 1404 974.5" stroke="#D86ECC" stroke-width="4.58333" stroke-miterlimit="8" fill="none" fill-rule="evenodd"/><path d="M1444.5 928.5 1444.5 933.312" stroke="#D86ECC" stroke-width="4.58333" stroke-miterlimit="8" fill="none" fill-rule="evenodd"/><path d="M0 12.0002C0 5.37267 5.37266-4.34458e-15 12.0002-5.79277e-15L170 0C176.627-1.44819e-15 182 5.37267 182 12.0002L182 60C182 66.6275 176.627 72.0002 170 72.0002L12.0002 72.0002C5.37266 72.0002-1.44819e-15 66.6275 0 60Z" stroke="#E97132" stroke-width="4.58333" stroke-miterlimit="8" fill="#FFFFFF" fill-rule="evenodd" transform="matrix(-1 0 0 1 1313.5 938.5)"/><text font-family="Times New Roman,Times New Roman_MSFontService,sans-serif" font-weight="700" font-size="28" transform="matrix(1 0 0 1 1168.85 968)">R2Filter.</text><text font-family="Times New Roman,Times New Roman_MSFontService,sans-serif" font-weight="700" font-size="28" transform="matrix(1 0 0 1 1192.34 1001)">fastq</text><path d="M1444.5 928.5 1509.46 928.5" stroke="#D86ECC" stroke-width="4.58333" stroke-miterlimit="8" fill="none" fill-rule="evenodd"/><path d="M1509.5 929C1509.5 925.41 1512.41 922.5 1516 922.5 1519.59 922.5 1522.5 925.41 1522.5 929 1522.5 932.59 1519.59 935.5 1516 935.5 1512.41 935.5 1509.5 932.59 1509.5 929Z" stroke="#D86ECC" stroke-width="6.875" stroke-miterlimit="8" fill="#D86ECC" fill-rule="evenodd"/><path d="M1535.5 904.833C1535.5 898.022 1541.02 892.5 1547.83 892.5L1764.17 892.5C1770.98 892.5 1776.5 898.022 1776.5 904.833L1776.5 954.167C1776.5 960.978 1770.98 966.5 1764.17 966.5L1547.83 966.5C1541.02 966.5 1535.5 960.978 1535.5 954.167Z" stroke="#8ED973" stroke-width="4.58333" stroke-miterlimit="8" fill="#FFFFFF" fill-rule="evenodd"/><text font-family="Times New Roman,Times New Roman_MSFontService,sans-serif" font-weight="700" font-size="28" transform="matrix(1 0 0 1 1576.99 923)">Get organelle</text><text font-family="Times New Roman,Times New Roman_MSFontService,sans-serif" font-weight="700" font-size="28" transform="matrix(1 0 0 1 1598.46 956)">(V1.7.7.1)</text><path d="M1783.5 929C1783.5 925.41 1786.41 922.5 1790 922.5 1793.59 922.5 1796.5 925.41 1796.5 929 1796.5 932.59 1793.59 935.5 1790 935.5 1786.41 935.5 1783.5 932.59 1783.5 929Z" stroke="#D86ECC" stroke-width="6.875" stroke-miterlimit="8" fill="#D86ECC" fill-rule="evenodd"/><path d="M1796.5 928.5 1835.48 928.5" stroke="#D86ECC" stroke-width="4.58333" stroke-miterlimit="8" fill="none" fill-rule="evenodd"/><path d="M0 8.66678C-1.44023e-15 3.88025 3.88025-1.44023e-15 8.66677-2.88047e-15L172.333 0C177.12-2.88047e-15 181 3.88025 181 8.66678L181 43.3331C181 48.1197 177.12 51.9999 172.333 51.9999L8.66677 51.9999C3.88025 51.9999 0 48.1197 0 43.3331Z" stroke="#E97132" stroke-width="4.58333" stroke-miterlimit="8" fill="#FFFFFF" fill-rule="evenodd" transform="matrix(-1 0 0 1 2147.5 862.5)"/><text font-family="Times New Roman,Times New Roman_MSFontService,sans-serif" font-weight="700" font-size="28" transform="matrix(1 0 0 1 2034.69 898)">.gfa</text><path d="M0 8.66678C-1.44023e-15 3.88025 3.88025-1.44023e-15 8.66677-2.88046e-15L172.333 0C177.12-2.88046e-15 181 3.88025 181 8.66678L181 43.3331C181 48.1196 177.12 51.9999 172.333 51.9999L8.66677 51.9999C3.88025 51.9999 0 48.1196 0 43.3331Z" stroke="#E97132" stroke-width="4.58333" stroke-miterlimit="8" fill="#FFFFFF" fill-rule="evenodd" transform="matrix(-1 0 0 1 2147.5 948.5)"/><text font-family="Times New Roman,Times New Roman_MSFontService,sans-serif" font-weight="700" font-size="28" transform="matrix(1 0 0 1 2024.67 985)">.fasta</text><path d="M0 6.50003C-7.63882e-16 2.91016 2.6863 -8.27541e-16 6.00002-1.65508e-15 9.31373-3.31016e-15 12 2.91016 12 6.50003 12 10.0899 9.31373 13.0001 6.00002 13.0001 2.6863 13.0001-3.81941e-15 10.0899 0 6.50003Z" stroke="#D86ECC" stroke-width="6.875" stroke-miterlimit="8" fill="#D86ECC" fill-rule="evenodd" transform="matrix(-1 0 0 1 1953.5 881.5)"/><path d="M0 6.50003C-7.63882e-16 2.91016 2.6863 -8.27541e-16 6.00002-1.65508e-15 9.31373-3.31016e-15 12 2.91016 12 6.50003 12 10.0899 9.31373 13.0001 6.00002 13.0001 2.6863 13.0001-3.81941e-15 10.0899 0 6.50003Z" stroke="#D86ECC" stroke-width="6.875" stroke-miterlimit="8" fill="#D86ECC" fill-rule="evenodd" transform="matrix(-1 0 0 1 1953.5 968.5)"/><path d="M0 0 64.9606 0.000360892" stroke="#D86ECC" stroke-width="4.58333" stroke-miterlimit="8" fill="none" fill-rule="evenodd" transform="matrix(-1 0 0 1 1941.46 888.5)"/><path d="M0 0 64.9606 0.000360892" stroke="#D86ECC" stroke-width="4.58333" stroke-miterlimit="8" fill="none" fill-rule="evenodd" transform="matrix(-1 0 0 1 1941.46 974.5)"/><path d="M40.4999 0C62.8674-1.03124e-14 80.9998 18.1324 80.9998 40.4999" stroke="#D86ECC" stroke-width="4.58333" stroke-miterlimit="8" fill="none" fill-rule="evenodd" transform="matrix(-1 0 0 1 1916.5 888.5)"/><path d="M41.0001 0C63.6438-5.21986e-15 82.0002 18.1324 82.0002 40.4999" stroke="#D86ECC" stroke-width="4.58333" stroke-miterlimit="8" fill="none" fill-rule="evenodd" transform="matrix(1.83697e-16 1 1 -1.83697e-16 1835.5 892.5)"/><path d="M0 0 0.000360892 4.8125" stroke="#D86ECC" stroke-width="4.58333" stroke-miterlimit="8" fill="none" fill-rule="evenodd" transform="matrix(-1 0 0 1 1835.5 929.5)"/><path d="M0 6.50003C-8.27541e-16 2.91016 2.91016 -8.27541e-16 6.50003-1.65508e-15 10.0899-3.31016e-15 13.0001 2.91016 13.0001 6.50003 13.0001 10.0899 10.0899 13.0001 6.50003 13.0001 2.91016 13.0001-4.1377e-15 10.0899 0 6.50003Z" stroke="#D86ECC" stroke-width="6.875" stroke-miterlimit="8" fill="#D86ECC" fill-rule="evenodd" transform="matrix(-1 0 0 1 2064.5 840.5)"/><path d="M0 0 0.000360892 64.9606" stroke="#D86ECC" stroke-width="4.58333" stroke-miterlimit="8" fill="#D86ECC" fill-rule="evenodd" transform="matrix(1 0 0 -1 2057.5 841.461)"/><path d="M0 6.50003C-8.27541e-16 2.91016 2.91016 -8.27541e-16 6.50003-1.65508e-15 10.0899-3.31016e-15 13.0001 2.91016 13.0001 6.50003 13.0001 10.0899 10.0899 13.0001 6.50003 13.0001 2.91016 13.0001-4.1377e-15 10.0899 0 6.50003Z" stroke="#D86ECC" stroke-width="6.875" stroke-miterlimit="8" fill="#D86ECC" fill-rule="evenodd" transform="matrix(-1 0 0 1 2064.5 763.5)"/><path d="M1966.5 688.667C1966.5 681.947 1971.95 676.5 1978.67 676.5L2135.33 676.5C2142.05 676.5 2147.5 681.947 2147.5 688.667L2147.5 737.333C2147.5 744.053 2142.05 749.5 2135.33 749.5L1978.67 749.5C1971.95 749.5 1966.5 744.053 1966.5 737.333Z" stroke="#8ED973" stroke-width="4.58333" stroke-miterlimit="8" fill="#FFFFFF" fill-rule="evenodd"/><text font-family="Times New Roman,Times New Roman_MSFontService,sans-serif" font-weight="700" font-size="28" transform="matrix(1 0 0 1 2005.19 707)">Bandage</text><text font-family="Times New Roman,Times New Roman_MSFontService,sans-serif" font-weight="700" font-size="28" transform="matrix(1 0 0 1 2009.77 740)">(V0.9.0)</text><path d="M0 6.50003C-8.27541e-16 2.91016 2.91016 -8.27541e-16 6.50003-1.65508e-15 10.0899-3.31016e-15 13.0001 2.91016 13.0001 6.50003 13.0001 10.0899 10.0899 13.0001 6.50003 13.0001 2.91016 13.0001-4.1377e-15 10.0899 0 6.50003Z" stroke="#D86ECC" stroke-width="6.875" stroke-miterlimit="8" fill="#D86ECC" fill-rule="evenodd" transform="matrix(-1 0 0 1 2063.5 655.5)"/><path d="M0 0 0.000360892 64.9606" stroke="#D86ECC" stroke-width="4.58333" stroke-miterlimit="8" fill="#D86ECC" fill-rule="evenodd" transform="matrix(1 0 0 -1 2056.5 655.461)"/><path d="M0 6.50003C-8.27541e-16 2.91016 2.91016 -8.27541e-16 6.50003-1.65508e-15 10.0899-3.31016e-15 13.0001 2.91016 13.0001 6.50003 13.0001 10.0899 10.0899 13.0001 6.50003 13.0001 2.91016 13.0001-4.1377e-15 10.0899 0 6.50003Z" stroke="#D86ECC" stroke-width="6.875" stroke-miterlimit="8" fill="#D86ECC" fill-rule="evenodd" transform="matrix(-1 0 0 1 2063.5 577.5)"/><path d="M0 8.66678C-1.44023e-15 3.88025 3.88025-1.44023e-15 8.66677-2.88047e-15L172.333 0C177.12-2.88047e-15 181 3.88025 181 8.66678L181 43.3331C181 48.1197 177.12 51.9999 172.333 51.9999L8.66677 51.9999C3.88025 51.9999 0 48.1197 0 43.3331Z" stroke="#E97132" stroke-width="4.58333" stroke-miterlimit="8" fill="#FFFFFF" fill-rule="evenodd" transform="matrix(-1 0 0 1 2147.5 516.5)"/><text font-family="Times New Roman,Times New Roman_MSFontService,sans-serif" font-weight="700" font-size="28" transform="matrix(1 0 0 1 2030.68 553)">.png</text><path d="M0 6.50003C-8.27541e-16 2.91016 2.91016 -8.27541e-16 6.50003-1.65508e-15 10.0899-3.31016e-15 13.0001 2.91016 13.0001 6.50003 13.0001 10.0899 10.0899 13.0001 6.50003 13.0001 2.91016 13.0001-4.1377e-15 10.0899 0 6.50003Z" stroke="#E7E15F" stroke-width="6.875" stroke-miterlimit="8" fill="#E7E15F" fill-rule="evenodd" transform="matrix(-1 0 0 1 2063.5 1013.5)"/><path d="M2056.5 1026.5 2056.5 1091.46" stroke="#E7E15F" stroke-width="4.58333" stroke-miterlimit="8" fill="none" fill-rule="evenodd"/><path d="M0 6.50003C-8.27541e-16 2.91016 2.91016 -8.27541e-16 6.50003-1.65508e-15 10.0899-3.31016e-15 13.0001 2.91016 13.0001 6.50003 13.0001 10.0899 10.0899 13.0001 6.50003 13.0001 2.91016 13.0001-4.1377e-15 10.0899 0 6.50003Z" stroke="#E7E15F" stroke-width="6.875" stroke-miterlimit="8" fill="#E7E15F" fill-rule="evenodd" transform="matrix(-1 0 0 1 2063.5 1095.5)"/><path d="M0 6.49985C-8.27541e-16 2.91008 2.91016 -8.27518e-16 6.50003-1.65504e-15 10.0899-3.31007e-15 13.0001 2.91008 13.0001 6.49985 13.0001 10.0896 10.0899 12.9997 6.50003 12.9997 2.91016 12.9997-4.1377e-15 10.0896 0 6.49985Z" stroke="#47D45A" stroke-width="6.875" stroke-miterlimit="8" fill="#47D45A" fill-rule="evenodd" transform="matrix(-1 0 0 1 2430.5 1604.5)"/><path d="M1966.5 1128.67C1966.5 1121.95 1971.95 1116.5 1978.67 1116.5L2135.33 1116.5C2142.05 1116.5 2147.5 1121.95 2147.5 1128.67L2147.5 1177.33C2147.5 1184.05 2142.05 1189.5 2135.33 1189.5L1978.67 1189.5C1971.95 1189.5 1966.5 1184.05 1966.5 1177.33Z" stroke="#8ED973" stroke-width="4.58333" stroke-miterlimit="8" fill="#FFFFFF" fill-rule="evenodd"/><text font-family="Times New Roman,Times New Roman_MSFontService,sans-serif" font-weight="700" font-size="28" transform="matrix(1 0 0 1 2020.66 1147)">Geseq</text><text font-family="Times New Roman,Times New Roman_MSFontService,sans-serif" font-weight="700" font-size="28" transform="matrix(1 0 0 1 2013.21 1180)">(V2.03)</text><path d="M0 6.49985C-8.27541e-16 2.91008 2.91016 -8.27518e-16 6.50003-1.65504e-15 10.0899-3.31007e-15 13.0001 2.91008 13.0001 6.49985 13.0001 10.0896 10.0899 12.9997 6.50003 12.9997 2.91016 12.9997-4.1377e-15 10.0896 0 6.49985Z" stroke="#E7E15F" stroke-width="6.875" stroke-miterlimit="8" fill="#E7E15F" fill-rule="evenodd" transform="matrix(-1 0 0 1 2063.5 1198.5)"/><path d="M2056.5 1211.5 2056.5 1276.46" stroke="#E7E15F" stroke-width="4.58333" stroke-miterlimit="8" fill="none" fill-rule="evenodd"/><path d="M1885.5 1315.5 1885.5 1341.48" stroke="#E7E15F" stroke-width="4.58333" stroke-miterlimit="8" fill="none" fill-rule="evenodd"/><path d="M41.0001 0C63.6438-1.04397e-14 82.0002 18.3564 82.0002 41.0001" stroke="#E7E15F" stroke-width="4.58333" stroke-miterlimit="8" fill="none" fill-rule="evenodd" transform="matrix(-1 0 0 1 1967.5 1274.5)"/><path d="M0 6.50003C-8.27518e-16 2.91016 2.91008 -8.27541e-16 6.49985-1.65508e-15 10.0896-3.31016e-15 12.9997 2.91016 12.9997 6.50003 12.9997 10.0899 10.0896 13.0001 6.49985 13.0001 2.91008 13.0001-4.13759e-15 10.0899 0 6.50003Z" stroke="#E7E15F" stroke-width="6.875" stroke-miterlimit="8" fill="#E7E15F" fill-rule="evenodd" transform="matrix(-1 0 0 1 1892.5 1344.5)"/><path d="M1783.5 1380.67C1783.5 1373.95 1788.95 1368.5 1795.67 1368.5L1975.33 1368.5C1982.05 1368.5 1987.5 1373.95 1987.5 1380.67L1987.5 1429.33C1987.5 1436.05 1982.05 1441.5 1975.33 1441.5L1795.67 1441.5C1788.95 1441.5 1783.5 1436.05 1783.5 1429.33Z" stroke="#8ED973" stroke-width="4.58333" stroke-miterlimit="8" fill="#FFFFFF" fill-rule="evenodd"/><text font-family="Times New Roman,Times New Roman_MSFontService,sans-serif" font-weight="700" font-size="28" transform="matrix(1 0 0 1 1820.06 1398)">OGDRAW</text><text font-family="Times New Roman,Times New Roman_MSFontService,sans-serif" font-weight="700" font-size="28" transform="matrix(1 0 0 1 1838.4 1431)">(V1.3.1)</text><path d="M0 6.50003C-8.27518e-16 2.91016 2.91008 -8.27541e-16 6.49985-1.65508e-15 10.0896-3.31016e-15 12.9997 2.91016 12.9997 6.50003 12.9997 10.0899 10.0896 13.0001 6.49985 13.0001 2.91008 13.0001-4.13759e-15 10.0899 0 6.50003Z" stroke="#E7E15F" stroke-width="6.875" stroke-miterlimit="8" fill="#E7E15F" fill-rule="evenodd" transform="matrix(-1 0 0 1 1771.5 1397.5)"/><path d="M1691.5 1404.5 1756.46 1404.5" stroke="#E7E15F" stroke-width="4.58333" stroke-miterlimit="8" fill="none" fill-rule="evenodd"/><path d="M0 6.50003C-8.27541e-16 2.91016 2.91016 -8.27541e-16 6.50003-1.65508e-15 10.0899-3.31016e-15 13.0001 2.91016 13.0001 6.50003 13.0001 10.0899 10.0899 13.0001 6.50003 13.0001 2.91016 13.0001-4.1377e-15 10.0899 0 6.50003Z" stroke="#E7E15F" stroke-width="6.875" stroke-miterlimit="8" fill="#E7E15F" fill-rule="evenodd" transform="matrix(-1 0 0 1 1690.5 1397.5)"/><path d="M0 8.50014C-1.44819e-15 3.80564 3.80563-1.4482e-15 8.50011-2.89639e-15L173.5 0C178.195-2.89639e-15 182 3.80564 182 8.50014L182 42.5001C182 47.1946 178.195 51.0002 173.5 51.0002L8.50011 51.0002C3.80563 51.0002 0 47.1946 0 42.5001Z" stroke="#E97132" stroke-width="4.58333" stroke-miterlimit="8" fill="#FFFFFF" fill-rule="evenodd" transform="matrix(-1 0 0 1 1668.5 1378.5)"/><text font-family="Times New Roman,Times New Roman_MSFontService,sans-serif" font-weight="700" font-size="28" transform="matrix(1 0 0 1 1551.54 1414)">.png</text><path d="M1926.5 1274.5 2186.34 1274.5" stroke="#E7E15F" stroke-width="4.58333" stroke-miterlimit="8" fill="none" fill-rule="evenodd"/><path d="M0 0 0.000360892 25.9843" stroke="#E7E15F" stroke-width="4.58333" stroke-miterlimit="8" fill="none" fill-rule="evenodd" transform="matrix(-1 0 0 1 2227.5 1315.5)"/><path d="M2186.5 1274.5C2209.14 1274.5 2227.5 1292.86 2227.5 1315.5" stroke="#E7E15F" stroke-width="4.58333" stroke-miterlimit="8" fill="none" fill-rule="evenodd"/><path d="M2221.5 1351C2221.5 1347.41 2224.41 1344.5 2228 1344.5 2231.59 1344.5 2234.5 1347.41 2234.5 1351 2234.5 1354.59 2231.59 1357.5 2228 1357.5 2224.41 1357.5 2221.5 1354.59 2221.5 1351Z" stroke="#E7E15F" stroke-width="6.875" stroke-miterlimit="8" fill="#E7E15F" fill-rule="evenodd"/><path d="M2135.5 1380.17C2135.5 1375.38 2139.38 1371.5 2144.17 1371.5L2308.83 1371.5C2313.62 1371.5 2317.5 1375.38 2317.5 1380.17L2317.5 1414.83C2317.5 1419.62 2313.62 1423.5 2308.83 1423.5L2144.17 1423.5C2139.38 1423.5 2135.5 1419.62 2135.5 1414.83Z" stroke="#E97132" stroke-width="4.58333" stroke-miterlimit="8" fill="#FFFFFF" fill-rule="evenodd"/><text font-family="Times New Roman,Times New Roman_MSFontService,sans-serif" font-weight="700" font-size="28" transform="matrix(1 0 0 1 2172.05 1407)">.genbank</text><path d="M2056.5 1276.5 2056.5 1448.86" stroke="#E7E15F" stroke-width="4.58333" stroke-miterlimit="8" fill="none" fill-rule="evenodd"/><path d="M0 6.50003C-8.27541e-16 2.91016 2.91016 -8.27541e-16 6.50003-1.65508e-15 10.0899-3.31016e-15 13.0001 2.91016 13.0001 6.50003 13.0001 10.0899 10.0899 13.0001 6.50003 13.0001 2.91016 13.0001-4.1377e-15 10.0899 0 6.50003Z" stroke="#E7E15F" stroke-width="6.875" stroke-miterlimit="8" fill="#E7E15F" fill-rule="evenodd" transform="matrix(-1 0 0 1 2063.5 1452.5)"/><path d="M1966.5 1484.17C1966.5 1479.38 1970.38 1475.5 1975.17 1475.5L2138.83 1475.5C2143.62 1475.5 2147.5 1479.38 2147.5 1484.17L2147.5 1518.83C2147.5 1523.62 2143.62 1527.5 2138.83 1527.5L1975.17 1527.5C1970.38 1527.5 1966.5 1523.62 1966.5 1518.83Z" stroke="#E97132" stroke-width="4.58333" stroke-miterlimit="8" fill="#FFFFFF" fill-rule="evenodd"/><text font-family="Times New Roman,Times New Roman_MSFontService,sans-serif" font-weight="700" font-size="28" transform="matrix(1 0 0 1 2030.11 1511)">.gff3</text><path d="M2255.5 1534.67C2255.5 1527.95 2260.95 1522.5 2267.67 1522.5L2567.33 1522.5C2574.05 1522.5 2579.5 1527.95 2579.5 1534.67L2579.5 1583.33C2579.5 1590.05 2574.05 1595.5 2567.33 1595.5L2267.67 1595.5C2260.95 1595.5 2255.5 1590.05 2255.5 1583.33Z" stroke="#8ED973" stroke-width="4.58333" stroke-miterlimit="8" fill="#FFFFFF" fill-rule="evenodd"/><text font-family="Times New Roman,Times New Roman_MSFontService,sans-serif" font-weight="700" font-size="28" transform="matrix(1 0 0 1 2292.56 1569)">Genome_Features.py</text><path d="M0 0 0.000360892 64.9606" stroke="#47D45A" stroke-width="4.58333" stroke-miterlimit="8" fill="none" fill-rule="evenodd" transform="matrix(-1 0 0 1 2423.5 1617.5)"/><path d="M0 6.49985C-8.27541e-16 2.91008 2.91016 -8.27518e-16 6.50003-1.65504e-15 10.0899-3.31007e-15 13.0001 2.91008 13.0001 6.49985 13.0001 10.0896 10.0899 12.9997 6.50003 12.9997 2.91016 12.9997-4.1377e-15 10.0896 0 6.49985Z" stroke="#47D45A" stroke-width="6.875" stroke-miterlimit="8" fill="#47D45A" fill-rule="evenodd" transform="matrix(-1 0 0 1 2430.5 1682.5)"/><path d="M2332.5 1714.17C2332.5 1709.38 2336.38 1705.5 2341.17 1705.5L2505.83 1705.5C2510.62 1705.5 2514.5 1709.38 2514.5 1714.17L2514.5 1748.83C2514.5 1753.62 2510.62 1757.5 2505.83 1757.5L2341.17 1757.5C2336.38 1757.5 2332.5 1753.62 2332.5 1748.83Z" stroke="#E97132" stroke-width="4.58333" stroke-miterlimit="8" fill="#FFFFFF" fill-rule="evenodd"/><text font-family="Times New Roman,Times New Roman_MSFontService,sans-serif" font-weight="700" font-size="28" transform="matrix(1 0 0 1 2406.27 1742)">tsv</text><path d="M2157.5 986C2157.5 982.41 2160.41 979.5 2164 979.5 2167.59 979.5 2170.5 982.41 2170.5 986 2170.5 989.59 2167.59 992.5 2164 992.5 2160.41 992.5 2157.5 989.59 2157.5 986Z" stroke="#FF0000" stroke-width="6.875" stroke-miterlimit="8" fill="#FF0000" fill-rule="evenodd"/><path d="M2170.5 986.5 2235.46 986.5" stroke="#FF0000" stroke-width="4.58333" stroke-miterlimit="8" fill="#FF0000" fill-rule="evenodd"/><path d="M2235.5 986C2235.5 982.41 2238.41 979.5 2242 979.5 2245.59 979.5 2248.5 982.41 2248.5 986 2248.5 989.59 2245.59 992.5 2242 992.5 2238.41 992.5 2235.5 989.59 2235.5 986Z" stroke="#FF0000" stroke-width="6.875" stroke-miterlimit="8" fill="#FF0000" fill-rule="evenodd"/><path d="M2259.5 945.667C2259.5 938.947 2264.95 933.5 2271.67 933.5L2428.33 933.5C2435.05 933.5 2440.5 938.947 2440.5 945.667L2440.5 994.333C2440.5 1001.05 2435.05 1006.5 2428.33 1006.5L2271.67 1006.5C2264.95 1006.5 2259.5 1001.05 2259.5 994.333Z" stroke="#8ED973" stroke-width="4.58333" stroke-miterlimit="8" fill="#FFFFFF" fill-rule="evenodd"/><text font-family="Times New Roman,Times New Roman_MSFontService,sans-serif" font-weight="700" font-size="28" transform="matrix(1 0 0 1 2300.75 963)">MAFFT</text><text font-family="Times New Roman,Times New Roman_MSFontService,sans-serif" font-weight="700" font-size="28" transform="matrix(1 0 0 1 2299.33 996)">(V7.490)</text><path d="M2451.5 975C2451.5 971.41 2454.41 968.5 2458 968.5 2461.59 968.5 2464.5 971.41 2464.5 975 2464.5 978.59 2461.59 981.5 2458 981.5 2454.41 981.5 2451.5 978.59 2451.5 975Z" stroke="#FF0000" stroke-width="6.875" stroke-miterlimit="8" fill="#FF0000" fill-rule="evenodd"/><path d="M2464.5 973.5 2529.46 973.5" stroke="#FF0000" stroke-width="4.58333" stroke-miterlimit="8" fill="#FF0000" fill-rule="evenodd"/><path d="M2529.5 975C2529.5 971.41 2532.41 968.5 2536 968.5 2539.59 968.5 2542.5 971.41 2542.5 975 2542.5 978.59 2539.59 981.5 2536 981.5 2532.41 981.5 2529.5 978.59 2529.5 975Z" stroke="#FF0000" stroke-width="6.875" stroke-miterlimit="8" fill="#FF0000" fill-rule="evenodd"/><path d="M2558.5 943.834C2558.5 937.022 2564.02 931.5 2570.83 931.5L2739.17 931.5C2745.98 931.5 2751.5 937.022 2751.5 943.834L2751.5 993.166C2751.5 999.978 2745.98 1005.5 2739.17 1005.5L2570.83 1005.5C2564.02 1005.5 2558.5 999.978 2558.5 993.166Z" stroke="#8ED973" stroke-width="4.58333" stroke-miterlimit="8" fill="#FFFFFF" fill-rule="evenodd"/><text font-family="Times New Roman,Times New Roman_MSFontService,sans-serif" font-weight="700" font-size="28" transform="matrix(1 0 0 1 2598.17 978)">MEGA13</text><path d="M2767.5 973C2767.5 969.41 2770.41 966.5 2774 966.5 2777.59 966.5 2780.5 969.41 2780.5 973 2780.5 976.59 2777.59 979.5 2774 979.5 2770.41 979.5 2767.5 976.59 2767.5 973Z" stroke="#FF0000" stroke-width="6.875" stroke-miterlimit="8" fill="#FF0000" fill-rule="evenodd"/><path d="M2780.5 973.5 2845.46 973.5" stroke="#FF0000" stroke-width="4.58333" stroke-miterlimit="8" fill="#FF0000" fill-rule="evenodd"/><path d="M2845.5 973C2845.5 969.41 2848.41 966.5 2852 966.5 2855.59 966.5 2858.5 969.41 2858.5 973 2858.5 976.59 2855.59 979.5 2852 979.5 2848.41 979.5 2845.5 976.59 2845.5 973Z" stroke="#FF0000" stroke-width="6.875" stroke-miterlimit="8" fill="#FF0000" fill-rule="evenodd"/><path d="M0 8.66689C0 3.8803 3.88029-3.13908e-15 8.66686-4.18544e-15L254.333 0C259.12-2.09272e-15 263 3.8803 263 8.66689L263 43.333C263 48.1196 259.12 51.9999 254.333 51.9999L8.66686 51.9999C3.88029 51.9999-1.04636e-15 48.1196 0 43.333Z" stroke="#E97132" stroke-width="4.58333" stroke-miterlimit="8" fill="#FFFFFF" fill-rule="evenodd" transform="matrix(-1 0 0 1 3132.5 943.5)"/><text font-family="Times New Roman,Times New Roman_MSFontService,sans-serif" font-weight="700" font-size="28" transform="matrix(1 0 0 1 2905.76 980)">Phylogentic tree</text><path d="M2284.5 1210.67C2284.5 1203.95 2289.95 1198.5 2296.67 1198.5L2545.33 1198.5C2552.05 1198.5 2557.5 1203.95 2557.5 1210.67L2557.5 1259.33C2557.5 1266.05 2552.05 1271.5 2545.33 1271.5L2296.67 1271.5C2289.95 1271.5 2284.5 1266.05 2284.5 1259.33Z" stroke="#8ED973" stroke-width="4.58333" stroke-miterlimit="8" fill="#FFFFFF" fill-rule="evenodd"/><text font-family="Times New Roman,Times New Roman_MSFontService,sans-serif" font-weight="700" font-size="28" transform="matrix(1 0 0 1 2323.6 1245)">Extract_CDS.py</text><path d="M2568.5 1235C2568.5 1231.41 2571.41 1228.5 2575 1228.5 2578.59 1228.5 2581.5 1231.41 2581.5 1235 2581.5 1238.59 2578.59 1241.5 2575 1241.5 2571.41 1241.5 2568.5 1238.59 2568.5 1235Z" stroke="#C04F15" stroke-width="6.875" stroke-miterlimit="8" fill="#C04F15" fill-rule="evenodd"/><path d="M2581.5 1234.5 2646.46 1234.5" stroke="#C04F15" stroke-width="4.58333" stroke-miterlimit="8" fill="#C04F15" fill-rule="evenodd"/><path d="M2646.5 1235C2646.5 1231.41 2649.41 1228.5 2653 1228.5 2656.59 1228.5 2659.5 1231.41 2659.5 1235 2659.5 1238.59 2656.59 1241.5 2653 1241.5 2649.41 1241.5 2646.5 1238.59 2646.5 1235Z" stroke="#C04F15" stroke-width="6.875" stroke-miterlimit="8" fill="#C04F15" fill-rule="evenodd"/><path d="M2670.5 1209.67C2670.5 1202.95 2675.95 1197.5 2682.67 1197.5L2840.33 1197.5C2847.05 1197.5 2852.5 1202.95 2852.5 1209.67L2852.5 1258.33C2852.5 1265.05 2847.05 1270.5 2840.33 1270.5L2682.67 1270.5C2675.95 1270.5 2670.5 1265.05 2670.5 1258.33Z" stroke="#8ED973" stroke-width="4.58333" stroke-miterlimit="8" fill="#FFFFFF" fill-rule="evenodd"/><text font-family="Times New Roman,Times New Roman_MSFontService,sans-serif" font-weight="700" font-size="28" transform="matrix(1 0 0 1 2707.72 1228)">CodonW</text><text font-family="Times New Roman,Times New Roman_MSFontService,sans-serif" font-weight="700" font-size="28" transform="matrix(1 0 0 1 2714.02 1261)">(V1.4.4)</text><path d="M2862.5 1235C2862.5 1231.41 2865.41 1228.5 2869 1228.5 2872.59 1228.5 2875.5 1231.41 2875.5 1235 2875.5 1238.59 2872.59 1241.5 2869 1241.5 2865.41 1241.5 2862.5 1238.59 2862.5 1235Z" stroke="#C04F15" stroke-width="6.875" stroke-miterlimit="8" fill="#C04F15" fill-rule="evenodd"/><path d="M2875.5 1234.5 2940.46 1234.5" stroke="#C04F15" stroke-width="4.58333" stroke-miterlimit="8" fill="#C04F15" fill-rule="evenodd"/><path d="M2940.5 1235C2940.5 1231.41 2943.41 1228.5 2947 1228.5 2950.59 1228.5 2953.5 1231.41 2953.5 1235 2953.5 1238.59 2950.59 1241.5 2947 1241.5 2943.41 1241.5 2940.5 1238.59 2940.5 1235Z" stroke="#C04F15" stroke-width="6.875" stroke-miterlimit="8" fill="#C04F15" fill-rule="evenodd"/><path d="M0 8.66685C-1.73464e-15 3.88028 3.88027 0 8.66683 0L100.333 0C105.12-1.73465e-15 109 3.88028 109 8.66685L109 43.333C109 48.1196 105.12 51.9999 100.333 51.9999L8.66683 51.9999C3.88027 51.9999 0 48.1196 0 43.333Z" stroke="#E97132" stroke-width="4.58333" stroke-miterlimit="8" fill="#FFFFFF" fill-rule="evenodd" transform="matrix(-1 0 0 1 3073.5 1205.5)"/><text font-family="Times New Roman,Times New Roman_MSFontService,sans-serif" font-weight="700" font-size="28" transform="matrix(1 0 0 1 3001.82 1241)">tsv</text><path d="M2498.5 1370.67C2498.5 1363.95 2503.95 1358.5 2510.67 1358.5L2760.33 1358.5C2767.05 1358.5 2772.5 1363.95 2772.5 1370.67L2772.5 1419.33C2772.5 1426.05 2767.05 1431.5 2760.33 1431.5L2510.67 1431.5C2503.95 1431.5 2498.5 1426.05 2498.5 1419.33Z" stroke="#8ED973" stroke-width="4.58333" stroke-miterlimit="8" fill="#FFFFFF" fill-rule="evenodd"/><text font-family="Times New Roman,Times New Roman_MSFontService,sans-serif" font-weight="700" font-size="28" transform="matrix(1 0 0 1 2539.39 1388)">KaKs Caculator</text><text font-family="Times New Roman,Times New Roman_MSFontService,sans-serif" font-weight="700" font-size="28" transform="matrix(1 0 0 1 2598.69 1421)">(V3.0)</text><path d="M2784.5 1399C2784.5 1395.41 2787.41 1392.5 2791 1392.5 2794.59 1392.5 2797.5 1395.41 2797.5 1399 2797.5 1402.59 2794.59 1405.5 2791 1405.5 2787.41 1405.5 2784.5 1402.59 2784.5 1399Z" stroke="#6FCBC9" stroke-width="6.875" stroke-miterlimit="8" fill="#6FCBC9" fill-rule="evenodd"/><path d="M2797.5 1398.5 2862.46 1398.5" stroke="#6FCBC9" stroke-width="4.58333" stroke-miterlimit="8" fill="#6FCBC9" fill-rule="evenodd"/><path d="M2862.5 1399C2862.5 1395.41 2865.41 1392.5 2869 1392.5 2872.59 1392.5 2875.5 1395.41 2875.5 1399 2875.5 1402.59 2872.59 1405.5 2869 1405.5 2865.41 1405.5 2862.5 1402.59 2862.5 1399Z" stroke="#6FCBC9" stroke-width="6.875" stroke-miterlimit="8" fill="#6FCBC9" fill-rule="evenodd"/><path d="M2887.5 1370.67C2887.5 1363.95 2892.95 1358.5 2899.67 1358.5L3072.33 1358.5C3079.05 1358.5 3084.5 1363.95 3084.5 1370.67L3084.5 1419.33C3084.5 1426.05 3079.05 1431.5 3072.33 1431.5L2899.67 1431.5C2892.95 1431.5 2887.5 1426.05 2887.5 1419.33Z" stroke="#8ED973" stroke-width="4.58333" stroke-miterlimit="8" fill="#FFFFFF" fill-rule="evenodd"/><text font-family="Times New Roman,Times New Roman_MSFontService,sans-serif" font-weight="700" font-size="28" transform="matrix(1 0 0 1 2928.13 1405)">Zscore.py</text><path d="M0 0 0.000360892 38.9764" stroke="#C04F15" stroke-width="4.58333" stroke-miterlimit="8" fill="none" fill-rule="evenodd" transform="matrix(1 0 0 -1 2420.5 1336.48)"/><path d="M40.4999 0C62.8674-1.04397e-14 80.9998 18.3563 80.9998 40.9999" stroke="#C04F15" stroke-width="4.58333" stroke-miterlimit="8" fill="none" fill-rule="evenodd" transform="matrix(1 0 0 -1 2339.5 1377.5)"/><path d="M2342.5 1377.5 2381.48 1377.5" stroke="#C04F15" stroke-width="4.58333" stroke-miterlimit="8" fill="none" fill-rule="evenodd"/><path d="M2329.5 1378C2329.5 1374.41 2332.41 1371.5 2336 1371.5 2339.59 1371.5 2342.5 1374.41 2342.5 1378 2342.5 1381.59 2339.59 1384.5 2336 1384.5 2332.41 1384.5 2329.5 1381.59 2329.5 1378Z" stroke="#C04F15" stroke-width="6.875" stroke-miterlimit="8" fill="#C04F15" fill-rule="evenodd"/><path d="M2414.5 1289C2414.5 1285.41 2417.41 1282.5 2421 1282.5 2424.59 1282.5 2427.5 1285.41 2427.5 1289 2427.5 1292.59 2424.59 1295.5 2421 1295.5 2417.41 1295.5 2414.5 1292.59 2414.5 1289Z" stroke="#C04F15" stroke-width="6.875" stroke-miterlimit="8" fill="#C04F15" fill-rule="evenodd"/><path d="M0 0 0.000360892 38.9764" stroke="#47D45A" stroke-width="4.58333" stroke-miterlimit="8" fill="none" fill-rule="evenodd" transform="matrix(-1.83697e-16 -1 -1 1.83697e-16 2383.48 1420.5)"/><path d="M41.0001 0C63.6438-1.04397e-14 82.0002 18.3564 82.0002 41.0001" stroke="#47D45A" stroke-width="4.58333" stroke-miterlimit="8" fill="none" fill-rule="evenodd" transform="matrix(-1.83697e-16 -1 -1 1.83697e-16 2424.5 1502.5)"/><path d="M2424.5 1499.48 2424.5 1460.5" stroke="#47D45A" stroke-width="4.58333" stroke-miterlimit="8" fill="none" fill-rule="evenodd"/><path d="M2424 1512.5C2420.41 1512.5 2417.5 1509.59 2417.5 1506 2417.5 1502.41 2420.41 1499.5 2424 1499.5 2427.59 1499.5 2430.5 1502.41 2430.5 1506 2430.5 1509.59 2427.59 1512.5 2424 1512.5Z" stroke="#47D45A" stroke-width="6.875" stroke-miterlimit="8" fill="#47D45A" fill-rule="evenodd"/><path d="M2336 1426.5C2332.41 1426.5 2329.5 1423.59 2329.5 1420 2329.5 1416.41 2332.41 1413.5 2336 1413.5 2339.59 1413.5 2342.5 1416.41 2342.5 1420 2342.5 1423.59 2339.59 1426.5 2336 1426.5Z" stroke="#47D45A" stroke-width="6.875" stroke-miterlimit="8" fill="#47D45A" fill-rule="evenodd"/><path d="M2336 1405.5C2332.41 1405.5 2329.5 1402.59 2329.5 1399 2329.5 1395.41 2332.41 1392.5 2336 1392.5 2339.59 1392.5 2342.5 1395.41 2342.5 1399 2342.5 1402.59 2339.59 1405.5 2336 1405.5Z" stroke="#6FCBC9" stroke-width="6.875" stroke-miterlimit="8" fill="#6FCBC9" fill-rule="evenodd"/><path d="M0 0 129.921 0.000360892" stroke="#6FCBC9" stroke-width="4.58333" stroke-miterlimit="8" fill="none" fill-rule="evenodd" transform="matrix(1 0 0 -1 2342.5 1398.5)"/><path d="M2482 1405.5C2478.41 1405.5 2475.5 1402.59 2475.5 1399 2475.5 1395.41 2478.41 1392.5 2482 1392.5 2485.59 1392.5 2488.5 1395.41 2488.5 1399 2488.5 1402.59 2485.59 1405.5 2482 1405.5Z" stroke="#6FCBC9" stroke-width="6.875" stroke-miterlimit="8" fill="#6FCBC9" fill-rule="evenodd"/><path d="M0 0 0.000360892 38.9764" stroke="#084F6A" stroke-width="4.58333" stroke-miterlimit="8" fill="none" fill-rule="evenodd" transform="matrix(1 -1.22465e-16 -1.22465e-16 -1 2249.5 917.477)"/><path d="M41.0001 0C63.6438-1.04397e-14 82.0002 18.3564 82.0002 41.0001" stroke="#084F6A" stroke-width="4.58333" stroke-miterlimit="8" fill="none" fill-rule="evenodd" transform="matrix(1 -1.22465e-16 -1.22465e-16 -1 2167.5 958.5)"/><path d="M2170.5 958.5 2209.48 958.5" stroke="#084F6A" stroke-width="4.58333" stroke-miterlimit="8" fill="none" fill-rule="evenodd"/><path d="M2157.5 958C2157.5 954.41 2160.41 951.5 2164 951.5 2167.59 951.5 2170.5 954.41 2170.5 958 2170.5 961.59 2167.59 964.5 2164 964.5 2160.41 964.5 2157.5 961.59 2157.5 958Z" stroke="#084F6A" stroke-width="6.875" stroke-miterlimit="8" fill="#084F6A" fill-rule="evenodd"/><path d="M2522.5 1071.83C2522.5 1065.02 2528.02 1059.5 2534.83 1059.5L2717.17 1059.5C2723.98 1059.5 2729.5 1065.02 2729.5 1071.83L2729.5 1121.17C2729.5 1127.98 2723.98 1133.5 2717.17 1133.5L2534.83 1133.5C2528.02 1133.5 2522.5 1127.98 2522.5 1121.17Z" stroke="#8ED973" stroke-width="4.58333" stroke-miterlimit="8" fill="#FFFFFF" fill-rule="evenodd"/><text font-family="Times New Roman,Times New Roman_MSFontService,sans-serif" font-weight="700" font-size="28" transform="matrix(1 0 0 1 2585.09 1090)">DnaSP</text><text font-family="Times New Roman,Times New Roman_MSFontService,sans-serif" font-weight="700" font-size="28" transform="matrix(1 0 0 1 2565.31 1123)">(V6.12.03)</text><path d="M0 0 0.000360892 38.9764" stroke="#FF66CC" stroke-width="4.58333" stroke-miterlimit="8" fill="none" fill-rule="evenodd" transform="matrix(-1 0 0 1 2420.5 1135.5)"/><path d="M41.0001 0C63.6438-1.04397e-14 82.0002 18.3564 82.0002 41.0001" stroke="#FF66CC" stroke-width="4.58333" stroke-miterlimit="8" fill="none" fill-rule="evenodd" transform="matrix(-1 0 0 1 2502.5 1094.5)"/><path d="M2499.48 1094.5 2460.5 1094.5" stroke="#FF66CC" stroke-width="4.58333" stroke-miterlimit="8" fill="none" fill-rule="evenodd"/><path d="M2512.5 1095C2512.5 1098.59 2509.59 1101.5 2506 1101.5 2502.41 1101.5 2499.5 1098.59 2499.5 1095 2499.5 1091.41 2502.41 1088.5 2506 1088.5 2509.59 1088.5 2512.5 1091.41 2512.5 1095Z" stroke="#FF66CC" stroke-width="6.875" stroke-miterlimit="8" fill="#FF66CC" fill-rule="evenodd"/><path d="M2427.5 1183C2427.5 1186.59 2424.59 1189.5 2421 1189.5 2417.41 1189.5 2414.5 1186.59 2414.5 1183 2414.5 1179.41 2417.41 1176.5 2421 1176.5 2424.59 1176.5 2427.5 1179.41 2427.5 1183Z" stroke="#FF66CC" stroke-width="6.875" stroke-miterlimit="8" fill="#FF66CC" fill-rule="evenodd"/><path d="M2497.5 726.667C2497.5 719.947 2502.95 714.5 2509.67 714.5L2678.33 714.5C2685.05 714.5 2690.5 719.947 2690.5 726.667L2690.5 775.333C2690.5 782.053 2685.05 787.5 2678.33 787.5L2509.67 787.5C2502.95 787.5 2497.5 782.053 2497.5 775.333Z" stroke="#8ED973" stroke-width="4.58333" stroke-miterlimit="8" fill="#FFFFFF" fill-rule="evenodd"/><text font-family="Times New Roman,Times New Roman_MSFontService,sans-serif" font-weight="700" font-size="28" transform="matrix(1 0 0 1 2557.22 745)">MISA</text><text font-family="Times New Roman,Times New Roman_MSFontService,sans-serif" font-weight="700" font-size="28" transform="matrix(1 0 0 1 2556.92 778)">(V2.1)</text><path d="M0 0 0.000360892 51.9685" stroke="#084F6A" stroke-width="4.58333" stroke-miterlimit="8" fill="none" fill-rule="evenodd" transform="matrix(1 0 0 -1 2249.5 887.469)"/><path d="M40.5001 0C62.8676-1.04397e-14 81.0001 18.3564 81.0001 41.0001" stroke="#084F6A" stroke-width="4.58333" stroke-miterlimit="8" fill="none" fill-rule="evenodd" transform="matrix(-1 0 0 1 2330.5 795.5)"/><path d="M2289.5 795.5 2364.27 795.5" stroke="#084F6A" stroke-width="4.58333" stroke-miterlimit="8" fill="none" fill-rule="evenodd"/><path d="M41.0001 0C63.6438-5.21986e-15 82.0002 18.1324 82.0002 40.4999" stroke="#084F6A" stroke-width="4.58333" stroke-miterlimit="8" fill="none" fill-rule="evenodd" transform="matrix(-1 0 0 1 2447.5 755.5)"/><path d="M40.5001 0C62.8676-1.04397e-14 81.0001 18.3564 81.0001 41.0001" stroke="#084F6A" stroke-width="4.58333" stroke-miterlimit="8" fill="none" fill-rule="evenodd" transform="matrix(1.83697e-16 1 1 -1.83697e-16 2365.5 755.5)"/><path d="M2406.5 755.5 2471.46 755.5" stroke="#084F6A" stroke-width="4.58333" stroke-miterlimit="8" fill="none" fill-rule="evenodd"/><path d="M0 0 64.9603 0.746686" stroke="#084F6A" stroke-width="4.58333" stroke-miterlimit="8" fill="none" fill-rule="evenodd" transform="matrix(1 0 0 -1 2406.5 836.247)"/><path d="M2473.5 757C2473.5 753.41 2476.41 750.5 2480 750.5 2483.59 750.5 2486.5 753.41 2486.5 757 2486.5 760.59 2483.59 763.5 2480 763.5 2476.41 763.5 2473.5 760.59 2473.5 757Z" stroke="#084F6A" stroke-width="6.875" stroke-miterlimit="8" fill="#084F6A" fill-rule="evenodd"/><path d="M2471.5 836C2471.5 832.41 2474.41 829.5 2478 829.5 2481.59 829.5 2484.5 832.41 2484.5 836 2484.5 839.59 2481.59 842.5 2478 842.5 2474.41 842.5 2471.5 839.59 2471.5 836Z" stroke="#084F6A" stroke-width="6.875" stroke-miterlimit="8" fill="#084F6A" fill-rule="evenodd"/><path d="M2497.5 810.834C2497.5 804.022 2503.02 798.5 2509.83 798.5L2678.17 798.5C2684.98 798.5 2690.5 804.022 2690.5 810.834L2690.5 860.166C2690.5 866.978 2684.98 872.5 2678.17 872.5L2509.83 872.5C2503.02 872.5 2497.5 866.978 2497.5 860.166Z" stroke="#8ED973" stroke-width="4.58333" stroke-miterlimit="8" fill="#FFFFFF" fill-rule="evenodd"/><text font-family="Times New Roman,Times New Roman_MSFontService,sans-serif" font-weight="700" font-size="28" transform="matrix(1 0 0 1 2545.18 829)">VMatch</text><text font-family="Times New Roman,Times New Roman_MSFontService,sans-serif" font-weight="700" font-size="28" transform="matrix(1 0 0 1 2546.6 862)">(V2.3.1)</text><path d="M2700.5 755C2700.5 751.41 2703.41 748.5 2707 748.5 2710.59 748.5 2713.5 751.41 2713.5 755 2713.5 758.59 2710.59 761.5 2707 761.5 2703.41 761.5 2700.5 758.59 2700.5 755Z" stroke="#084F6A" stroke-width="6.875" stroke-miterlimit="8" fill="#084F6A" fill-rule="evenodd"/><path d="M2713.5 755.5 2778.46 755.5" stroke="#084F6A" stroke-width="4.58333" stroke-miterlimit="8" fill="none" fill-rule="evenodd"/><path d="M2778.5 755C2778.5 751.41 2781.41 748.5 2785 748.5 2788.59 748.5 2791.5 751.41 2791.5 755 2791.5 758.59 2788.59 761.5 2785 761.5 2781.41 761.5 2778.5 758.59 2778.5 755Z" stroke="#084F6A" stroke-width="6.875" stroke-miterlimit="8" fill="#084F6A" fill-rule="evenodd"/><path d="M2700.5 834C2700.5 830.41 2703.41 827.5 2707 827.5 2710.59 827.5 2713.5 830.41 2713.5 834 2713.5 837.59 2710.59 840.5 2707 840.5 2703.41 840.5 2700.5 837.59 2700.5 834Z" stroke="#084F6A" stroke-width="6.875" stroke-miterlimit="8" fill="#084F6A" fill-rule="evenodd"/><path d="M2713.5 833.5 2778.46 833.5" stroke="#084F6A" stroke-width="4.58333" stroke-miterlimit="8" fill="none" fill-rule="evenodd"/><path d="M2778.5 834C2778.5 830.41 2781.41 827.5 2785 827.5 2788.59 827.5 2791.5 830.41 2791.5 834 2791.5 837.59 2788.59 840.5 2785 840.5 2781.41 840.5 2778.5 837.59 2778.5 834Z" stroke="#084F6A" stroke-width="6.875" stroke-miterlimit="8" fill="#084F6A" fill-rule="evenodd"/><path d="M0 11.5002C-2.32347e-15 5.14883 5.14882 0 11.5002 0L134.5 0C140.851-2.32347e-15 146 5.14883 146 11.5002L146 57.4999C146 63.8513 140.851 69.0001 134.5 69.0001L11.5002 69.0001C5.14882 69.0001 0 63.8513 0 57.4999Z" stroke="#E97132" stroke-width="4.58333" stroke-miterlimit="8" fill="#FFFFFF" fill-rule="evenodd" transform="matrix(-1 0 0 1 2953.5 718.5)"/><text font-family="Times New Roman,Times New Roman_MSFontService,sans-serif" font-weight="700" font-size="28" transform="matrix(1 0 0 1 2848.98 763)">.misa</text><path d="M0 11.5002C-2.29164e-15 5.1488 5.1488-4.58329e-15 11.5002-4.58329e-15L132.5 0C138.851-2.29164e-15 144 5.1488 144 11.5002L144 57.4999C144 63.8513 138.851 69.0001 132.5 69.0001L11.5002 69.0001C5.1488 69.0001-2.29164e-15 63.8513 0 57.4999Z" stroke="#E97132" stroke-width="4.58333" stroke-miterlimit="8" fill="#FFFFFF" fill-rule="evenodd" transform="matrix(-1 0 0 1 2951.5 799.5)"/><text font-family="Times New Roman,Times New Roman_MSFontService,sans-serif" font-weight="700" font-size="28" transform="matrix(1 0 0 1 2862.14 844)">tsv</text><path d="M3096.5 1399C3096.5 1395.41 3099.41 1392.5 3103 1392.5 3106.59 1392.5 3109.5 1395.41 3109.5 1399 3109.5 1402.59 3106.59 1405.5 3103 1405.5 3099.41 1405.5 3096.5 1402.59 3096.5 1399Z" stroke="#6FCBC9" stroke-width="6.875" stroke-miterlimit="8" fill="#6FCBC9" fill-rule="evenodd"/><path d="M3109.5 1398.5 3174.46 1398.5" stroke="#6FCBC9" stroke-width="4.58333" stroke-miterlimit="8" fill="#6FCBC9" fill-rule="evenodd"/><path d="M3174.5 1399C3174.5 1395.41 3177.41 1392.5 3181 1392.5 3184.59 1392.5 3187.5 1395.41 3187.5 1399 3187.5 1402.59 3184.59 1405.5 3181 1405.5 3177.41 1405.5 3174.5 1402.59 3174.5 1399Z" stroke="#6FCBC9" stroke-width="6.875" stroke-miterlimit="8" fill="#6FCBC9" fill-rule="evenodd"/><path d="M0 8.66681C-1.71873e-15 3.88026 3.88026 0 8.66681 0L99.3331 0C104.12-1.71873e-15 108 3.88026 108 8.66681L108 43.3331C108 48.1196 104.12 51.9999 99.3331 51.9999L8.66681 51.9999C3.88026 51.9999 0 48.1196 0 43.3331Z" stroke="#E97132" stroke-width="4.58333" stroke-miterlimit="8" fill="#FFFFFF" fill-rule="evenodd" transform="matrix(-1 0 0 1 3308.5 1372.5)"/><text font-family="Times New Roman,Times New Roman_MSFontService,sans-serif" font-weight="700" font-size="28" transform="matrix(1 0 0 1 3237.18 1409)">tsv</text><path d="M2745.5 1095C2745.5 1091.41 2748.41 1088.5 2752 1088.5 2755.59 1088.5 2758.5 1091.41 2758.5 1095 2758.5 1098.59 2755.59 1101.5 2752 1101.5 2748.41 1101.5 2745.5 1098.59 2745.5 1095Z" stroke="#FF66CC" stroke-width="6.875" stroke-miterlimit="8" fill="#FF66CC" fill-rule="evenodd"/><path d="M2758.5 1094.5 2823.46 1094.5" stroke="#FF66CC" stroke-width="4.58333" stroke-miterlimit="8" fill="#FF66CC" fill-rule="evenodd"/><path d="M2823.5 1095C2823.5 1091.41 2826.41 1088.5 2830 1088.5 2833.59 1088.5 2836.5 1091.41 2836.5 1095 2836.5 1098.59 2833.59 1101.5 2830 1101.5 2826.41 1101.5 2823.5 1098.59 2823.5 1095Z" stroke="#FF66CC" stroke-width="6.875" stroke-miterlimit="8" fill="#FF66CC" fill-rule="evenodd"/><path d="M0 8.66681C-1.71873e-15 3.88026 3.88026 0 8.66681 0L99.3331 0C104.12-1.71873e-15 108 3.88026 108 8.66681L108 43.3331C108 48.1196 104.12 51.9999 99.3331 51.9999L8.66681 51.9999C3.88026 51.9999 0 48.1196 0 43.3331Z" stroke="#E97132" stroke-width="4.58333" stroke-miterlimit="8" fill="#FFFFFF" fill-rule="evenodd" transform="matrix(-1 0 0 1 2960.5 1069.5)"/><text font-family="Times New Roman,Times New Roman_MSFontService,sans-serif" font-weight="700" font-size="28" transform="matrix(1 0 0 1 2889.16 1106)">tsv</text><path d="M3200.5 919.5 3265.46 919.5" stroke="#46B1E1" stroke-width="6.875" stroke-miterlimit="8" fill="none" fill-rule="evenodd"/><text font-family="Times New Roman,Times New Roman_MSFontService,sans-serif" font-weight="700" font-size="28" transform="matrix(1 0 0 1 3278.51 928)">Data preprocessing</text><path d="M3200.5 958.5 3265.46 958.5" stroke="#D86ECC" stroke-width="6.875" stroke-miterlimit="8" fill="none" fill-rule="evenodd"/><text font-family="Times New Roman,Times New Roman_MSFontService,sans-serif" font-weight="700" font-size="28" transform="matrix(1 0 0 1 3278.51 968)">Genome assembly</text><path d="M3200.5 1001.5 3265.46 1001.5" stroke="#E7E15F" stroke-width="6.875" stroke-miterlimit="8" fill="none" fill-rule="evenodd"/><text font-family="Times New Roman,Times New Roman_MSFontService,sans-serif" font-weight="700" font-size="28" transform="matrix(1 0 0 1 3278.51 1011)">Genome annotation</text><path d="M3200.5 1044.5 3265.46 1044.5" stroke="#C04F15" stroke-width="6.875" stroke-miterlimit="8" fill="none" fill-rule="evenodd"/><text font-family="Times New Roman,Times New Roman_MSFontService,sans-serif" font-weight="700" font-size="28" transform="matrix(1 0 0 1 3278.51 1054)">Relative Synonymous Codon Usage</text><path d="M3200.5 1089.5 3265.46 1089.5" stroke="#47D45A" stroke-width="6.875" stroke-miterlimit="8" fill="none" fill-rule="evenodd"/><text font-family="Times New Roman,Times New Roman_MSFontService,sans-serif" font-weight="700" font-size="28" transform="matrix(1 0 0 1 3278.51 1099)">Chloroplast Genome Characteristics</text><path d="M3200.5 1136.5 3265.46 1136.5" stroke="#6FCBC9" stroke-width="6.875" stroke-miterlimit="8" fill="none" fill-rule="evenodd"/><text font-family="Times New Roman,Times New Roman_MSFontService,sans-serif" font-weight="700" font-size="28" transform="matrix(1 0 0 1 3278.51 1145)">Selection Pressure Analysis</text><path d="M3200.5 1185.5 3265.46 1185.5" stroke="#FF33CC" stroke-width="6.875" stroke-miterlimit="8" fill="none" fill-rule="evenodd"/><text font-family="Times New Roman,Times New Roman_MSFontService,sans-serif" font-weight="700" font-size="28" transform="matrix(1 0 0 1 3278.51 1196)">Nucleotide diversity calculation</text><path d="M3200.5 1239.5 3265.46 1239.5" stroke="#084F6A" stroke-width="6.875" stroke-miterlimit="8" fill="none" fill-rule="evenodd"/><text font-family="Times New Roman,Times New Roman_MSFontService,sans-serif" font-weight="700" font-size="28" transform="matrix(1 0 0 1 3278.51 1249)">Identification of simple sequence repeats (SSRs) and long sequence repeats (LSRs)</text><path d="M3200.5 1288.5 3265.46 1288.5" stroke="#FF0000" stroke-width="6.875" stroke-miterlimit="8" fill="none" fill-rule="evenodd"/><text font-family="Times New Roman,Times New Roman_MSFontService,sans-serif" font-weight="700" font-size="28" transform="matrix(1 0 0 1 3280.21 1298)">Phylogenetic tree</text></g></svg>